<svg xmlns="http://www.w3.org/2000/svg" width="130" height="45" fill="none" viewBox="0 0 132 47">
  <g filter="url(#a)">
    <path fill="url(#b)" d="M131 1.57v.816q-1.013.122-1.551.611-.538.449-.729 1.468-.158.978-.158 2.812v23.275a4.5 4.5 0 0 0-.633-.041 7 7 0 0 0-.697.04L113.649 6.789v17.609q0 1.956.19 3.057.19 1.06.823 1.549.665.449 1.995.611v.815a12 12 0 0 0-1.552-.081 42 42 0 0 0-1.804-.04q-.76 0-1.552.04-.76 0-1.266.081v-.815q1.044-.162 1.551-.611.538-.449.697-1.468.19-1.018.19-2.812V5.89q0-1.508-.19-2.2-.159-.735-.697-.979-.507-.285-1.551-.326V1.57q.505.04 1.266.081.792.04 1.552.041.728 0 1.424-.04.697-.042 1.235-.082l11.874 20.34V7.602q0-1.996-.19-3.057t-.823-1.549q-.635-.49-1.995-.611V1.57q.601.04 1.551.081.982.04 1.805.041.792 0 1.551-.04.792-.042 1.267-.082"/>
  </g>
  <g filter="url(#c)">
    <path fill="url(#d)" d="M107.221 1.57a94 94 0 0 0-.19 3.262Q107 6.38 107 7.196q0 .774.031 1.508.032.693.064 1.182h-.729q-.252-2.812-.823-4.402-.57-1.63-1.551-2.283-.95-.693-2.502-.693h-1.741q-.95 0-1.456.204-.507.204-.697.856-.159.652-.158 1.997v20.87q0 1.305.158 1.997.19.652.697.856t1.456.204h1.805q1.614 0 2.691-.775 1.108-.774 1.773-2.527.665-1.793.982-4.891h.728q-.095 1.264-.095 3.26 0 .857.032 2.487.063 1.63.19 3.383a73 73 0 0 0-3.642-.081 182 182 0 0 0-3.609-.04h-1.932q-1.17 0-2.564.04-1.362 0-2.787.04-1.392 0-2.66.041v-.815q1.046-.081 1.552-.326.539-.245.697-.978.19-.734.19-2.201V5.89q0-1.508-.19-2.2-.159-.735-.697-.979-.506-.285-1.551-.326V1.57q1.266.04 2.66.081 1.425 0 2.786.041h7.789a99 99 0 0 0 3.324-.122m-5.097 13.94v.816h-5.636v-.815zm.918-5.38q-.127 2.324-.127 3.547.032 1.222.032 2.242 0 1.019.032 2.241.031 1.224.158 3.546h-.728a16.3 16.3 0 0 0-.507-2.608q-.316-1.263-1.045-1.997-.697-.775-2.026-.775v-.815q.981 0 1.583-.53.633-.53 1.013-1.345.38-.855.57-1.753.222-.938.317-1.752z"/>
  </g>
  <g filter="url(#e)">
    <path fill="url(#f)" d="M76.35 1.57q6.078 0 8.992 3.67 2.944 3.627 2.944 10.434 0 4.443-1.456 7.785-1.425 3.302-4.148 5.136t-6.618 1.834q-.474 0-1.298-.04a33 33 0 0 0-1.678-.041q-.855-.04-1.583-.04-1.298 0-2.533.04-1.235 0-2.026.081v-.815q1.044-.081 1.551-.326.538-.245.697-.978.19-.734.19-2.201V5.89q0-1.508-.19-2.2-.159-.735-.697-.979-.507-.285-1.551-.326V1.57q.791.04 2.026.122 1.234.04 2.47 0 1.14-.04 2.564-.082 1.425-.04 2.343-.04m-.286.734q-1.456 0-1.9.693t-.443 2.813v20.38q0 2.119.444 2.813.474.693 1.931.693 2.944 0 4.591-1.59 1.678-1.63 2.343-4.728.697-3.099.697-7.541 0-4.565-.76-7.54-.729-3.017-2.406-4.484-1.68-1.509-4.497-1.509"/>
  </g>
  <g filter="url(#g)">
    <path fill="url(#h)" d="M57.208 1.57v.816q-1.077.04-1.646.326-.54.245-.729.978-.19.693-.19 2.201v20.544q0 1.305.159 1.997.19.652.665.856.474.204 1.361.204h1.805q1.234 0 2.153-.57.95-.571 1.646-1.672.698-1.1 1.14-2.69.444-1.63.633-3.669h.729q-.095 1.346-.095 3.506 0 .897.031 2.568.064 1.671.19 3.464a73 73 0 0 0-3.64-.081q-2.028-.04-3.61-.04h-1.932q-1.17 0-2.565.04-1.36 0-2.786.04-1.393 0-2.66.041v-.815q1.045-.081 1.552-.326.538-.245.697-.978.19-.734.19-2.201V5.89q0-1.508-.19-2.2-.159-.735-.697-.979-.507-.285-1.552-.326V1.57q.792.04 2.027.081 1.235.04 2.66.041 1.298 0 2.564-.04 1.266-.042 2.09-.082"/>
  </g>
  <g filter="url(#i)">
    <path fill="url(#j)" d="M34.71 1q3.228 0 5.667 1.753t3.768 5.054q1.36 3.26 1.361 7.948 0 4.566-1.393 7.99-1.362 3.423-3.831 5.34Q37.843 31 34.678 31q-3.23 0-5.668-1.753t-3.8-5.054q-1.33-3.301-1.33-7.948 0-4.566 1.394-7.99 1.393-3.423 3.83-5.34Q31.544 1.002 34.71 1m-.127.734q-1.869 0-3.262 1.834Q29.96 5.403 29.2 8.622t-.76 7.46q0 4.32.855 7.54.855 3.18 2.311 4.932 1.456 1.712 3.198 1.712 1.868 0 3.23-1.834 1.392-1.834 2.153-5.054.76-3.26.76-7.46 0-4.36-.855-7.54T37.78 3.486q-1.425-1.752-3.197-1.752"/>
  </g>
  <g filter="url(#k)">
    <path fill="url(#l)" d="M12.019 1q2.121 0 3.45.815a13 13 0 0 1 2.439 1.834q.38.408.633.408.602 0 .792-2.486h.728a145 145 0 0 0-.095 3.79 438 438 0 0 0-.032 5.91h-.728q-.222-2.2-.633-3.953t-1.488-2.976a5.5 5.5 0 0 0-2.09-1.752q-1.235-.652-2.501-.652-1.679 0-2.945 1.14-1.235 1.102-2.09 3.058-.823 1.916-1.235 4.484-.411 2.526-.411 5.42 0 7.338 1.646 10.762 1.679 3.383 4.908 3.383.887 0 1.52-.285a6 6 0 0 0 1.076-.653q.507-.448.665-.937t.159-1.223v-3.995q0-1.792-.254-2.65-.253-.896-.95-1.222-.665-.326-1.994-.367v-.815q.633.04 1.488.082.886 0 1.836.04h1.773q1.235 0 2.248-.04a83 83 0 0 0 1.678-.082v.815q-.633.04-.981.286-.316.244-.412.978-.095.733-.095 2.242v8.07h-.633a7 7 0 0 0-.253-1.508q-.222-.815-.665-.815-.222 0-.507.163-.285.123-.981.611a11.2 11.2 0 0 1-2.375 1.55q-1.234.57-2.723.57-3.546 0-6.016-1.712-2.438-1.753-3.704-5.014Q1 20.975 1 16.409q0-4.688 1.425-8.153t3.894-5.34Q8.821 1.002 12.02 1"/>
  </g>
  <g filter="url(#m)">
    <path fill="url(#n)" d="M122.308 41.572v1.021h-4.443v-1.02z"/>
  </g>
  <g filter="url(#o)">
    <path fill="url(#p)" d="M113.089 36.041v.276q-.247.083-.517.428-.272.33-.591 1.034l-2.375 5.283h-.456l-2.88-5.959q-.234-.482-.406-.62-.172-.152-.308-.152v-.29q.295.014.616.042.332.014.714.014a44 44 0 0 0 2.117-.056v.29q-.309 0-.554.055t-.333.235q-.086.18.062.524l1.994 4.276-.296.386 1.404-3.117q.405-.91.418-1.421.024-.51-.258-.717-.271-.221-.776-.235v-.276l.763.028q.369.014.726.014.296 0 .517-.014.234-.014.419-.028m-2.733 5.076v3.228q0 .496.074.745.075.248.271.33.21.084.603.111v.276a9 9 0 0 0-.8-.028 35 35 0 0 0-2.006 0q-.48 0-.775.028v-.276q.405-.027.603-.11.208-.084.27-.331.074-.249.074-.745v-2.828l.936.855z"/>
  </g>
  <g filter="url(#q)">
    <path fill="url(#r)" d="M97.609 36.041q.307.015.787.028t.96.014q.604 0 1.145-.014t.763-.014q1.108 0 1.822.304.726.29 1.083.827.357.538.357 1.27 0 .454-.16.937a2.3 2.3 0 0 1-.554.87q-.394.399-1.083.661-.677.248-1.736.248h-1.181v-.275h1.058q.775 0 1.182-.304.418-.316.554-.828.147-.523.147-1.158 0-1.09-.381-1.683-.381-.607-1.317-.607-.504 0-.665.235-.147.234-.147.951v6.842q0 .496.073.745.075.248.271.33.21.084.603.111v.276a9 9 0 0 0-.787-.028 34 34 0 0 0-2.007 0q-.48 0-.787.028v-.276q.406-.027.603-.11a.44.44 0 0 0 .27-.331q.074-.249.074-.745v-6.842q0-.51-.073-.744a.44.44 0 0 0-.271-.331q-.198-.098-.603-.11zm2.203 4.897q.578.027.96.069.394.027.664.055.283.028.505.069 1.022.11 1.502.538.492.414.652 1.269l.283 1.42q.111.567.234.814.135.235.382.221a.46.46 0 0 0 .295-.096q.123-.11.246-.29l.172.165q-.307.428-.652.635-.345.193-.874.193-.59 0-.997-.303-.406-.317-.554-1.187l-.233-1.379a8 8 0 0 0-.234-1.02q-.123-.443-.345-.69-.222-.249-.652-.249h-1.33z"/>
  </g>
  <g filter="url(#s)">
    <path fill="url(#t)" d="m93.07 36 2.991 8.648q.184.497.394.69.222.18.406.193v.276a9 9 0 0 0-.775-.028q-.444-.014-.911-.014-.542 0-1.01.014-.467 0-.763.028v-.276q.629-.027.8-.234.172-.222-.073-.925l-2.167-6.551.222-.304-1.97 5.724q-.233.69-.282 1.131-.05.443.061.69a.68.68 0 0 0 .37.359q.258.096.64.11v.276a11 11 0 0 0-.764-.028q-.369-.014-.738-.014-.27 0-.517.014-.234 0-.419.028v-.276q.27-.07.53-.359.27-.29.517-1.006L92.43 36a3.5 3.5 0 0 0 .64 0m1.07 5.834v.276h-3.667l.123-.276z"/>
  </g>
  <g filter="url(#u)">
    <path fill="url(#v)" d="M80.223 36.041q.309.015.788.028t.96.014q.603 0 1.145-.014.54-.014.763-.014 1.108 0 1.822.304.726.29 1.083.827.357.538.357 1.27 0 .454-.16.937a2.3 2.3 0 0 1-.554.87q-.395.399-1.083.661-.677.248-1.736.248h-1.181v-.275h1.058q.775 0 1.182-.304a1.5 1.5 0 0 0 .553-.828q.148-.523.148-1.158 0-1.09-.381-1.683-.383-.607-1.317-.607-.505 0-.665.235-.147.234-.148.951v6.842q0 .496.074.745.075.248.271.33.21.084.603.111v.276a9 9 0 0 0-.788-.028 34 34 0 0 0-2.006 0q-.48 0-.788.028v-.276q.406-.027.603-.11.21-.084.271-.331.075-.249.074-.745v-6.842q0-.51-.074-.744a.44.44 0 0 0-.27-.331q-.198-.098-.604-.11zm2.204 4.897q.577.027.96.069.394.027.664.055.283.028.505.069 1.02.11 1.502.538.492.414.652 1.269l.283 1.42q.111.567.234.814.135.235.381.221a.46.46 0 0 0 .296-.096q.123-.11.246-.29l.172.165q-.307.428-.652.635-.345.193-.874.193-.59 0-.997-.303-.405-.317-.554-1.187l-.234-1.379a8 8 0 0 0-.234-1.02q-.123-.443-.344-.69-.221-.249-.653-.249h-1.329z"/>
  </g>
  <g filter="url(#w)">
    <path fill="url(#x)" d="M71.59 36.041q.309.015.789.028t.96.014q.603 0 1.144-.014.542-.014.763-.014 1.452 0 2.167.607.726.607.726 1.559 0 .483-.234.965-.222.483-.726.87-.493.386-1.293.579v.027q1.084.111 1.711.497.64.372.911.896.27.51.27 1.076 0 .841-.393 1.448-.382.595-1.108.91-.725.318-1.748.318-.27 0-.824-.014-.555-.027-1.342-.027-.504 0-.984.013-.48 0-.788.028v-.276q.406-.027.603-.11a.44.44 0 0 0 .27-.331q.075-.249.075-.745v-6.842q0-.51-.074-.744a.44.44 0 0 0-.271-.331q-.197-.098-.603-.11zm3.447.276q-.505 0-.664.235-.148.234-.148.951v6.842q0 .483.074.73.074.25.258.332.185.083.542.083 1.01 0 1.452-.621.456-.634.456-1.793 0-1.062-.493-1.642-.48-.579-1.6-.579h-1.12v-.234h1.059q.627 0 .972-.304.345-.317.468-.827a5 5 0 0 0 .123-1.118q0-1.02-.32-1.53-.321-.525-1.059-.525"/>
  </g>
  <g filter="url(#y)">
    <path fill="url(#z)" d="M70.074 36.041v.276q-.395.014-.603.11-.198.084-.271.332-.075.234-.074.744v6.842q0 .496.074.745.075.248.27.33.21.084.604.111v.276a9 9 0 0 0-.788-.028 34 34 0 0 0-2.006 0q-.48 0-.788.028v-.276q.406-.027.603-.11.21-.084.271-.331.075-.249.074-.745v-6.842q0-.51-.074-.744a.44.44 0 0 0-.27-.331q-.198-.098-.604-.11v-.277q.308.015.788.028a36 36 0 0 0 2.006 0q.48-.014.788-.028"/>
  </g>
  <g filter="url(#A)">
    <path fill="url(#B)" d="M62.092 36.041v.276q-.42.014-.64.11a.48.48 0 0 0-.284.332q-.074.234-.074.744v6.952q0 .441.062.676.074.22.258.29.185.069.53.069h.701a1.73 1.73 0 0 0 1.477-.759q.271-.372.443-.91.172-.552.247-1.242h.283q-.037.456-.037 1.187 0 .303.012.869.025.565.074 1.172-.628-.028-1.416-.028-.787-.014-1.403-.014h-.75q-.456 0-.997.014-.53 0-1.084.014-.54 0-1.033.014v-.276q.405-.027.603-.11.21-.084.27-.331.074-.249.074-.745v-6.842q0-.51-.074-.744a.44.44 0 0 0-.27-.331q-.198-.098-.603-.11v-.277q.307.015.787.028a36 36 0 0 0 2.031 0q.493-.014.813-.028"/>
  </g>
  <g filter="url(#C)">
    <path fill="url(#D)" d="M53.384 36.041v.276q-.393.014-.603.11a.48.48 0 0 0-.283.332q-.061.234-.061.744v6.842q0 .496.073.745.075.248.271.33.21.084.603.111v.276a10 10 0 0 0-.812-.028 36 36 0 0 0-2.043 0q-.48 0-.776.028v-.276q.42-.027.628-.11a.47.47 0 0 0 .295-.331q.074-.249.074-.745V36.84l.086.014-3.052 8.993h-.197l-3.25-8.924v6.842q0 .661.075 1.034.074.36.32.524.258.151.775.207v.276a5 5 0 0 0-.603-.028 19 19 0 0 0-.702-.014q-.296 0-.603.014-.295 0-.492.028v-.276q.406-.056.603-.207.21-.152.27-.496.075-.345.075-.952v-6.373q0-.51-.074-.744a.44.44 0 0 0-.271-.331q-.197-.098-.603-.11v-.277q.197.015.492.028.307.014.603.014.456 0 .887-.014.43-.014.763-.028l2.646 7.407-.27.248 2.572-7.613h.775q.504 0 .997-.014.492-.014.812-.028"/>
  </g>
  <g filter="url(#E)">
    <path fill="url(#F)" d="M38.694 36.041v.276q-.418.014-.64.11a.48.48 0 0 0-.283.332q-.075.234-.074.744v6.952q0 .441.062.676.073.22.258.29t.53.069h.7a1.73 1.73 0 0 0 1.478-.759q.27-.372.443-.91.173-.552.246-1.242h.283q-.037.456-.037 1.187 0 .303.013.869.024.565.073 1.172-.627-.028-1.415-.028-.788-.014-1.403-.014h-.75q-.456 0-.998.014-.53 0-1.083.014-.542 0-1.034.014v-.276q.406-.027.603-.11a.44.44 0 0 0 .271-.331q.075-.249.074-.745v-6.842q0-.51-.074-.744a.44.44 0 0 0-.27-.331q-.198-.098-.604-.11v-.277q.308.015.788.028a36 36 0 0 0 2.03 0q.494-.014.813-.028"/>
  </g>
  <g filter="url(#G)">
    <path fill="url(#H)" d="M33.546 36.041v.276q-.395.014-.603.11-.197.084-.27.332-.075.234-.075.744v6.842q0 .496.074.745.075.248.27.33.21.084.604.111v.276a9 9 0 0 0-.788-.028 34 34 0 0 0-2.006 0q-.48 0-.788.028v-.276q.406-.027.604-.11a.44.44 0 0 0 .27-.331q.075-.249.074-.745v-6.842q0-.51-.074-.744a.44.44 0 0 0-.27-.331q-.198-.098-.604-.11v-.277q.308.015.788.028a36 36 0 0 0 2.006 0q.48-.014.788-.028"/>
  </g>
  <g filter="url(#I)">
    <path fill="url(#J)" d="M28.586 36.041q-.049.593-.074 1.145-.012.552-.012.842 0 .317.012.593l.025.482h-.283q-.135-1.035-.37-1.627-.233-.607-.627-.855-.394-.262-1.046-.262h-.53q-.369 0-.566.069a.43.43 0 0 0-.27.29q-.062.22-.062.675v6.897q0 .524.098.786.099.262.382.345t.812.096v.29a12 12 0 0 0-.923-.028q-.566-.014-1.169-.014-.517 0-.997.014-.48 0-.837.028v-.276q.406-.027.603-.11a.44.44 0 0 0 .27-.331q.075-.249.075-.745v-6.842q0-.51-.074-.744a.44.44 0 0 0-.27-.331q-.198-.098-.604-.11v-.277q.492.015 1.034.028.554 0 1.083.014h3.027q.727-.014 1.293-.042m-1.858 4.8v.276h-2.314v-.276zm.283-1.82q-.05.786-.05 1.2.013.414.013.758t.012.759q.012.414.062 1.2h-.283a4.3 4.3 0 0 0-.185-.883q-.136-.427-.418-.676-.272-.261-.788-.262v-.276q.38 0 .628-.179a1.2 1.2 0 0 0 .381-.455q.148-.289.222-.593.085-.318.123-.593z"/>
  </g>
  <g filter="url(#K)">
    <path fill="url(#L)" d="M16.751 41.572v1.021h-4.443v-1.02z"/>
  </g>
  <defs>
    <linearGradient id="b" x1="65.916" x2="65.916" y1="-13.728" y2="40.62" gradientUnits="userSpaceOnUse">
      <stop stop-color="#f9ec8a"/>
      <stop offset=".596" stop-color="#fdf799"/>
      <stop offset=".9" stop-color="#dab658"/>
      <stop offset="1" stop-color="#cfac54"/>
    </linearGradient>
    <linearGradient id="d" x1="65.916" x2="65.916" y1="-13.728" y2="40.62" gradientUnits="userSpaceOnUse">
      <stop stop-color="#f9ec8a"/>
      <stop offset=".596" stop-color="#fdf799"/>
      <stop offset=".9" stop-color="#dab658"/>
      <stop offset="1" stop-color="#cfac54"/>
    </linearGradient>
    <linearGradient id="f" x1="65.916" x2="65.916" y1="-13.728" y2="40.62" gradientUnits="userSpaceOnUse">
      <stop stop-color="#f9ec8a"/>
      <stop offset=".596" stop-color="#fdf799"/>
      <stop offset=".9" stop-color="#dab658"/>
      <stop offset="1" stop-color="#cfac54"/>
    </linearGradient>
    <linearGradient id="h" x1="65.915" x2="65.915" y1="-13.728" y2="40.62" gradientUnits="userSpaceOnUse">
      <stop stop-color="#f9ec8a"/>
      <stop offset=".596" stop-color="#fdf799"/>
      <stop offset=".9" stop-color="#dab658"/>
      <stop offset="1" stop-color="#cfac54"/>
    </linearGradient>
    <linearGradient id="j" x1="65.916" x2="65.916" y1="-13.728" y2="40.62" gradientUnits="userSpaceOnUse">
      <stop stop-color="#f9ec8a"/>
      <stop offset=".596" stop-color="#fdf799"/>
      <stop offset=".9" stop-color="#dab658"/>
      <stop offset="1" stop-color="#cfac54"/>
    </linearGradient>
    <linearGradient id="l" x1="65.916" x2="65.916" y1="-13.728" y2="40.62" gradientUnits="userSpaceOnUse">
      <stop stop-color="#f9ec8a"/>
      <stop offset=".596" stop-color="#fdf799"/>
      <stop offset=".9" stop-color="#dab658"/>
      <stop offset="1" stop-color="#cfac54"/>
    </linearGradient>
    <linearGradient id="n" x1="67.432" x2="67.432" y1="30.864" y2="49.255" gradientUnits="userSpaceOnUse">
      <stop stop-color="#f9ec8a"/>
      <stop offset=".596" stop-color="#fdf799"/>
      <stop offset=".9" stop-color="#dab658"/>
      <stop offset="1" stop-color="#cfac54"/>
    </linearGradient>
    <linearGradient id="p" x1="67.432" x2="67.432" y1="30.864" y2="49.255" gradientUnits="userSpaceOnUse">
      <stop stop-color="#f9ec8a"/>
      <stop offset=".596" stop-color="#fdf799"/>
      <stop offset=".9" stop-color="#dab658"/>
      <stop offset="1" stop-color="#cfac54"/>
    </linearGradient>
    <linearGradient id="r" x1="67.432" x2="67.432" y1="30.864" y2="49.255" gradientUnits="userSpaceOnUse">
      <stop stop-color="#f9ec8a"/>
      <stop offset=".596" stop-color="#fdf799"/>
      <stop offset=".9" stop-color="#dab658"/>
      <stop offset="1" stop-color="#cfac54"/>
    </linearGradient>
    <linearGradient id="t" x1="67.432" x2="67.432" y1="30.864" y2="49.255" gradientUnits="userSpaceOnUse">
      <stop stop-color="#f9ec8a"/>
      <stop offset=".596" stop-color="#fdf799"/>
      <stop offset=".9" stop-color="#dab658"/>
      <stop offset="1" stop-color="#cfac54"/>
    </linearGradient>
    <linearGradient id="v" x1="67.432" x2="67.432" y1="30.864" y2="49.255" gradientUnits="userSpaceOnUse">
      <stop stop-color="#f9ec8a"/>
      <stop offset=".596" stop-color="#fdf799"/>
      <stop offset=".9" stop-color="#dab658"/>
      <stop offset="1" stop-color="#cfac54"/>
    </linearGradient>
    <linearGradient id="x" x1="67.432" x2="67.432" y1="30.864" y2="49.255" gradientUnits="userSpaceOnUse">
      <stop stop-color="#f9ec8a"/>
      <stop offset=".596" stop-color="#fdf799"/>
      <stop offset=".9" stop-color="#dab658"/>
      <stop offset="1" stop-color="#cfac54"/>
    </linearGradient>
    <linearGradient id="z" x1="67.432" x2="67.432" y1="30.864" y2="49.255" gradientUnits="userSpaceOnUse">
      <stop stop-color="#f9ec8a"/>
      <stop offset=".596" stop-color="#fdf799"/>
      <stop offset=".9" stop-color="#dab658"/>
      <stop offset="1" stop-color="#cfac54"/>
    </linearGradient>
    <linearGradient id="B" x1="67.432" x2="67.432" y1="30.864" y2="49.255" gradientUnits="userSpaceOnUse">
      <stop stop-color="#f9ec8a"/>
      <stop offset=".596" stop-color="#fdf799"/>
      <stop offset=".9" stop-color="#dab658"/>
      <stop offset="1" stop-color="#cfac54"/>
    </linearGradient>
    <linearGradient id="D" x1="67.432" x2="67.432" y1="30.864" y2="49.255" gradientUnits="userSpaceOnUse">
      <stop stop-color="#f9ec8a"/>
      <stop offset=".596" stop-color="#fdf799"/>
      <stop offset=".9" stop-color="#dab658"/>
      <stop offset="1" stop-color="#cfac54"/>
    </linearGradient>
    <linearGradient id="F" x1="67.432" x2="67.432" y1="30.864" y2="49.255" gradientUnits="userSpaceOnUse">
      <stop stop-color="#f9ec8a"/>
      <stop offset=".596" stop-color="#fdf799"/>
      <stop offset=".9" stop-color="#dab658"/>
      <stop offset="1" stop-color="#cfac54"/>
    </linearGradient>
    <linearGradient id="H" x1="67.432" x2="67.432" y1="30.864" y2="49.255" gradientUnits="userSpaceOnUse">
      <stop stop-color="#f9ec8a"/>
      <stop offset=".596" stop-color="#fdf799"/>
      <stop offset=".9" stop-color="#dab658"/>
      <stop offset="1" stop-color="#cfac54"/>
    </linearGradient>
    <linearGradient id="J" x1="67.432" x2="67.432" y1="30.864" y2="49.255" gradientUnits="userSpaceOnUse">
      <stop stop-color="#f9ec8a"/>
      <stop offset=".596" stop-color="#fdf799"/>
      <stop offset=".9" stop-color="#dab658"/>
      <stop offset="1" stop-color="#cfac54"/>
    </linearGradient>
    <linearGradient id="L" x1="67.432" x2="67.432" y1="30.864" y2="49.255" gradientUnits="userSpaceOnUse">
      <stop stop-color="#f9ec8a"/>
      <stop offset=".596" stop-color="#fdf799"/>
      <stop offset=".9" stop-color="#dab658"/>
      <stop offset="1" stop-color="#cfac54"/>
    </linearGradient>
    <filter id="a" width="22.517" height="30.981" x="109.483" y=".571" color-interpolation-filters="sRGB" filterUnits="userSpaceOnUse">
      <feFlood flood-opacity="0" result="BackgroundImageFix"/>
      <feColorMatrix in="SourceAlpha" result="hardAlpha" values="0 0 0 0 0 0 0 0 0 0 0 0 0 0 0 0 0 0 127 0"/>
      <feOffset/>
      <feGaussianBlur stdDeviation=".5"/>
      <feComposite in2="hardAlpha" operator="out"/>
      <feColorMatrix values="0 0 0 0 0.992157 0 0 0 0 0.968627 0 0 0 0 0.6 0 0 0 1 0"/>
      <feBlend in2="BackgroundImageFix" result="effect1_dropShadow_4_87"/>
      <feBlend in="SourceGraphic" in2="effect1_dropShadow_4_87" result="shape"/>
    </filter>
    <filter id="c" width="19.193" height="30.859" x="89.662" y=".571" color-interpolation-filters="sRGB" filterUnits="userSpaceOnUse">
      <feFlood flood-opacity="0" result="BackgroundImageFix"/>
      <feColorMatrix in="SourceAlpha" result="hardAlpha" values="0 0 0 0 0 0 0 0 0 0 0 0 0 0 0 0 0 0 127 0"/>
      <feOffset/>
      <feGaussianBlur stdDeviation=".5"/>
      <feComposite in2="hardAlpha" operator="out"/>
      <feColorMatrix values="0 0 0 0 0.992157 0 0 0 0 0.968627 0 0 0 0 0.6 0 0 0 1 0"/>
      <feBlend in2="BackgroundImageFix" result="effect1_dropShadow_4_87"/>
      <feBlend in="SourceGraphic" in2="effect1_dropShadow_4_87" result="shape"/>
    </filter>
    <filter id="e" width="23.341" height="30.859" x="65.946" y=".571" color-interpolation-filters="sRGB" filterUnits="userSpaceOnUse">
      <feFlood flood-opacity="0" result="BackgroundImageFix"/>
      <feColorMatrix in="SourceAlpha" result="hardAlpha" values="0 0 0 0 0 0 0 0 0 0 0 0 0 0 0 0 0 0 127 0"/>
      <feOffset/>
      <feGaussianBlur stdDeviation=".5"/>
      <feComposite in2="hardAlpha" operator="out"/>
      <feColorMatrix values="0 0 0 0 0.992157 0 0 0 0 0.968627 0 0 0 0 0.6 0 0 0 1 0"/>
      <feBlend in2="BackgroundImageFix" result="effect1_dropShadow_4_87"/>
      <feBlend in="SourceGraphic" in2="effect1_dropShadow_4_87" result="shape"/>
    </filter>
    <filter id="g" width="19.193" height="30.859" x="46.867" y=".571" color-interpolation-filters="sRGB" filterUnits="userSpaceOnUse">
      <feFlood flood-opacity="0" result="BackgroundImageFix"/>
      <feColorMatrix in="SourceAlpha" result="hardAlpha" values="0 0 0 0 0 0 0 0 0 0 0 0 0 0 0 0 0 0 127 0"/>
      <feOffset/>
      <feGaussianBlur stdDeviation=".5"/>
      <feComposite in2="hardAlpha" operator="out"/>
      <feColorMatrix values="0 0 0 0 0.992157 0 0 0 0 0.968627 0 0 0 0 0.6 0 0 0 1 0"/>
      <feBlend in2="BackgroundImageFix" result="effect1_dropShadow_4_87"/>
      <feBlend in="SourceGraphic" in2="effect1_dropShadow_4_87" result="shape"/>
    </filter>
    <filter id="i" width="23.626" height="32" x="22.881" y="0" color-interpolation-filters="sRGB" filterUnits="userSpaceOnUse">
      <feFlood flood-opacity="0" result="BackgroundImageFix"/>
      <feColorMatrix in="SourceAlpha" result="hardAlpha" values="0 0 0 0 0 0 0 0 0 0 0 0 0 0 0 0 0 0 127 0"/>
      <feOffset/>
      <feGaussianBlur stdDeviation=".5"/>
      <feComposite in2="hardAlpha" operator="out"/>
      <feColorMatrix values="0 0 0 0 0.992157 0 0 0 0 0.968627 0 0 0 0 0.6 0 0 0 1 0"/>
      <feBlend in2="BackgroundImageFix" result="effect1_dropShadow_4_87"/>
      <feBlend in="SourceGraphic" in2="effect1_dropShadow_4_87" result="shape"/>
    </filter>
    <filter id="k" width="22.612" height="32" x="0" y="0" color-interpolation-filters="sRGB" filterUnits="userSpaceOnUse">
      <feFlood flood-opacity="0" result="BackgroundImageFix"/>
      <feColorMatrix in="SourceAlpha" result="hardAlpha" values="0 0 0 0 0 0 0 0 0 0 0 0 0 0 0 0 0 0 127 0"/>
      <feOffset/>
      <feGaussianBlur stdDeviation=".5"/>
      <feComposite in2="hardAlpha" operator="out"/>
      <feColorMatrix values="0 0 0 0 0.992157 0 0 0 0 0.968627 0 0 0 0 0.6 0 0 0 1 0"/>
      <feBlend in2="BackgroundImageFix" result="effect1_dropShadow_4_87"/>
      <feBlend in="SourceGraphic" in2="effect1_dropShadow_4_87" result="shape"/>
    </filter>
    <filter id="m" width="6.443" height="3.021" x="116.865" y="40.572" color-interpolation-filters="sRGB" filterUnits="userSpaceOnUse">
      <feFlood flood-opacity="0" result="BackgroundImageFix"/>
      <feColorMatrix in="SourceAlpha" result="hardAlpha" values="0 0 0 0 0 0 0 0 0 0 0 0 0 0 0 0 0 0 127 0"/>
      <feOffset/>
      <feGaussianBlur stdDeviation=".5"/>
      <feComposite in2="hardAlpha" operator="out"/>
      <feColorMatrix values="0 0 0 0 0.992157 0 0 0 0 0.968627 0 0 0 0 0.6 0 0 0 1 0"/>
      <feBlend in2="BackgroundImageFix" result="effect1_dropShadow_4_87"/>
      <feBlend in="SourceGraphic" in2="effect1_dropShadow_4_87" result="shape"/>
    </filter>
    <filter id="o" width="9.533" height="11.765" x="104.556" y="35.041" color-interpolation-filters="sRGB" filterUnits="userSpaceOnUse">
      <feFlood flood-opacity="0" result="BackgroundImageFix"/>
      <feColorMatrix in="SourceAlpha" result="hardAlpha" values="0 0 0 0 0 0 0 0 0 0 0 0 0 0 0 0 0 0 127 0"/>
      <feOffset/>
      <feGaussianBlur stdDeviation=".5"/>
      <feComposite in2="hardAlpha" operator="out"/>
      <feColorMatrix values="0 0 0 0 0.992157 0 0 0 0 0.968627 0 0 0 0 0.6 0 0 0 1 0"/>
      <feBlend in2="BackgroundImageFix" result="effect1_dropShadow_4_87"/>
      <feBlend in="SourceGraphic" in2="effect1_dropShadow_4_87" result="shape"/>
    </filter>
    <filter id="q" width="10.099" height="11.959" x="96.609" y="35.041" color-interpolation-filters="sRGB" filterUnits="userSpaceOnUse">
      <feFlood flood-opacity="0" result="BackgroundImageFix"/>
      <feColorMatrix in="SourceAlpha" result="hardAlpha" values="0 0 0 0 0 0 0 0 0 0 0 0 0 0 0 0 0 0 127 0"/>
      <feOffset/>
      <feGaussianBlur stdDeviation=".5"/>
      <feComposite in2="hardAlpha" operator="out"/>
      <feColorMatrix values="0 0 0 0 0.992157 0 0 0 0 0.968627 0 0 0 0 0.6 0 0 0 1 0"/>
      <feBlend in2="BackgroundImageFix" result="effect1_dropShadow_4_87"/>
      <feBlend in="SourceGraphic" in2="effect1_dropShadow_4_87" result="shape"/>
    </filter>
    <filter id="s" width="10.296" height="11.807" x="87.565" y="35" color-interpolation-filters="sRGB" filterUnits="userSpaceOnUse">
      <feFlood flood-opacity="0" result="BackgroundImageFix"/>
      <feColorMatrix in="SourceAlpha" result="hardAlpha" values="0 0 0 0 0 0 0 0 0 0 0 0 0 0 0 0 0 0 127 0"/>
      <feOffset/>
      <feGaussianBlur stdDeviation=".5"/>
      <feComposite in2="hardAlpha" operator="out"/>
      <feColorMatrix values="0 0 0 0 0.992157 0 0 0 0 0.968627 0 0 0 0 0.6 0 0 0 1 0"/>
      <feBlend in2="BackgroundImageFix" result="effect1_dropShadow_4_87"/>
      <feBlend in="SourceGraphic" in2="effect1_dropShadow_4_87" result="shape"/>
    </filter>
    <filter id="u" width="10.099" height="11.959" x="79.223" y="35.041" color-interpolation-filters="sRGB" filterUnits="userSpaceOnUse">
      <feFlood flood-opacity="0" result="BackgroundImageFix"/>
      <feColorMatrix in="SourceAlpha" result="hardAlpha" values="0 0 0 0 0 0 0 0 0 0 0 0 0 0 0 0 0 0 127 0"/>
      <feOffset/>
      <feGaussianBlur stdDeviation=".5"/>
      <feComposite in2="hardAlpha" operator="out"/>
      <feColorMatrix values="0 0 0 0 0.992157 0 0 0 0 0.968627 0 0 0 0 0.6 0 0 0 1 0"/>
      <feBlend in2="BackgroundImageFix" result="effect1_dropShadow_4_87"/>
      <feBlend in="SourceGraphic" in2="effect1_dropShadow_4_87" result="shape"/>
    </filter>
    <filter id="w" width="9.188" height="11.765" x="70.591" y="35.041" color-interpolation-filters="sRGB" filterUnits="userSpaceOnUse">
      <feFlood flood-opacity="0" result="BackgroundImageFix"/>
      <feColorMatrix in="SourceAlpha" result="hardAlpha" values="0 0 0 0 0 0 0 0 0 0 0 0 0 0 0 0 0 0 127 0"/>
      <feOffset/>
      <feGaussianBlur stdDeviation=".5"/>
      <feComposite in2="hardAlpha" operator="out"/>
      <feColorMatrix values="0 0 0 0 0.992157 0 0 0 0 0.968627 0 0 0 0 0.6 0 0 0 1 0"/>
      <feBlend in2="BackgroundImageFix" result="effect1_dropShadow_4_87"/>
      <feBlend in="SourceGraphic" in2="effect1_dropShadow_4_87" result="shape"/>
    </filter>
    <filter id="y" width="5.582" height="11.765" x="65.492" y="35.041" color-interpolation-filters="sRGB" filterUnits="userSpaceOnUse">
      <feFlood flood-opacity="0" result="BackgroundImageFix"/>
      <feColorMatrix in="SourceAlpha" result="hardAlpha" values="0 0 0 0 0 0 0 0 0 0 0 0 0 0 0 0 0 0 127 0"/>
      <feOffset/>
      <feGaussianBlur stdDeviation=".5"/>
      <feComposite in2="hardAlpha" operator="out"/>
      <feColorMatrix values="0 0 0 0 0.992157 0 0 0 0 0.968627 0 0 0 0 0.6 0 0 0 1 0"/>
      <feBlend in2="BackgroundImageFix" result="effect1_dropShadow_4_87"/>
      <feBlend in="SourceGraphic" in2="effect1_dropShadow_4_87" result="shape"/>
    </filter>
    <filter id="A" width="8.683" height="11.765" x="57.461" y="35.041" color-interpolation-filters="sRGB" filterUnits="userSpaceOnUse">
      <feFlood flood-opacity="0" result="BackgroundImageFix"/>
      <feColorMatrix in="SourceAlpha" result="hardAlpha" values="0 0 0 0 0 0 0 0 0 0 0 0 0 0 0 0 0 0 127 0"/>
      <feOffset/>
      <feGaussianBlur stdDeviation=".5"/>
      <feComposite in2="hardAlpha" operator="out"/>
      <feColorMatrix values="0 0 0 0 0.992157 0 0 0 0 0.968627 0 0 0 0 0.6 0 0 0 1 0"/>
      <feBlend in2="BackgroundImageFix" result="effect1_dropShadow_4_87"/>
      <feBlend in="SourceGraphic" in2="effect1_dropShadow_4_87" result="shape"/>
    </filter>
    <filter id="C" width="12.277" height="11.807" x="42.107" y="35.041" color-interpolation-filters="sRGB" filterUnits="userSpaceOnUse">
      <feFlood flood-opacity="0" result="BackgroundImageFix"/>
      <feColorMatrix in="SourceAlpha" result="hardAlpha" values="0 0 0 0 0 0 0 0 0 0 0 0 0 0 0 0 0 0 127 0"/>
      <feOffset/>
      <feGaussianBlur stdDeviation=".5"/>
      <feComposite in2="hardAlpha" operator="out"/>
      <feColorMatrix values="0 0 0 0 0.992157 0 0 0 0 0.968627 0 0 0 0 0.6 0 0 0 1 0"/>
      <feBlend in2="BackgroundImageFix" result="effect1_dropShadow_4_87"/>
      <feBlend in="SourceGraphic" in2="effect1_dropShadow_4_87" result="shape"/>
    </filter>
    <filter id="E" width="8.683" height="11.765" x="34.063" y="35.041" color-interpolation-filters="sRGB" filterUnits="userSpaceOnUse">
      <feFlood flood-opacity="0" result="BackgroundImageFix"/>
      <feColorMatrix in="SourceAlpha" result="hardAlpha" values="0 0 0 0 0 0 0 0 0 0 0 0 0 0 0 0 0 0 127 0"/>
      <feOffset/>
      <feGaussianBlur stdDeviation=".5"/>
      <feComposite in2="hardAlpha" operator="out"/>
      <feColorMatrix values="0 0 0 0 0.992157 0 0 0 0 0.968627 0 0 0 0 0.6 0 0 0 1 0"/>
      <feBlend in2="BackgroundImageFix" result="effect1_dropShadow_4_87"/>
      <feBlend in="SourceGraphic" in2="effect1_dropShadow_4_87" result="shape"/>
    </filter>
    <filter id="G" width="5.582" height="11.765" x="28.964" y="35.041" color-interpolation-filters="sRGB" filterUnits="userSpaceOnUse">
      <feFlood flood-opacity="0" result="BackgroundImageFix"/>
      <feColorMatrix in="SourceAlpha" result="hardAlpha" values="0 0 0 0 0 0 0 0 0 0 0 0 0 0 0 0 0 0 127 0"/>
      <feOffset/>
      <feGaussianBlur stdDeviation=".5"/>
      <feComposite in2="hardAlpha" operator="out"/>
      <feColorMatrix values="0 0 0 0 0.992157 0 0 0 0 0.968627 0 0 0 0 0.6 0 0 0 1 0"/>
      <feBlend in2="BackgroundImageFix" result="effect1_dropShadow_4_87"/>
      <feBlend in="SourceGraphic" in2="effect1_dropShadow_4_87" result="shape"/>
    </filter>
    <filter id="I" width="8.437" height="11.765" x="21.149" y="35.041" color-interpolation-filters="sRGB" filterUnits="userSpaceOnUse">
      <feFlood flood-opacity="0" result="BackgroundImageFix"/>
      <feColorMatrix in="SourceAlpha" result="hardAlpha" values="0 0 0 0 0 0 0 0 0 0 0 0 0 0 0 0 0 0 127 0"/>
      <feOffset/>
      <feGaussianBlur stdDeviation=".5"/>
      <feComposite in2="hardAlpha" operator="out"/>
      <feColorMatrix values="0 0 0 0 0.992157 0 0 0 0 0.968627 0 0 0 0 0.6 0 0 0 1 0"/>
      <feBlend in2="BackgroundImageFix" result="effect1_dropShadow_4_87"/>
      <feBlend in="SourceGraphic" in2="effect1_dropShadow_4_87" result="shape"/>
    </filter>
    <filter id="K" width="6.443" height="3.021" x="11.308" y="40.572" color-interpolation-filters="sRGB" filterUnits="userSpaceOnUse">
      <feFlood flood-opacity="0" result="BackgroundImageFix"/>
      <feColorMatrix in="SourceAlpha" result="hardAlpha" values="0 0 0 0 0 0 0 0 0 0 0 0 0 0 0 0 0 0 127 0"/>
      <feOffset/>
      <feGaussianBlur stdDeviation=".5"/>
      <feComposite in2="hardAlpha" operator="out"/>
      <feColorMatrix values="0 0 0 0 0.992157 0 0 0 0 0.968627 0 0 0 0 0.6 0 0 0 1 0"/>
      <feBlend in2="BackgroundImageFix" result="effect1_dropShadow_4_87"/>
      <feBlend in="SourceGraphic" in2="effect1_dropShadow_4_87" result="shape"/>
    </filter>
  </defs>
</svg>